<mxfile host="app.diagrams.net" modified="2023-07-15T16:28:55.880Z" agent="Mozilla/5.0 (Windows NT 10.0; Win64; x64) AppleWebKit/537.36 (KHTML, like Gecko) Chrome/114.0.0.0 Safari/537.36" etag="5xIKpWjrCbikDF_ybxYq" version="21.6.2" type="github">
  <diagram name="Страница 1" id="lRytPPyJrX4_acMXls5d">
    <mxGraphModel dx="1434" dy="756" grid="1" gridSize="10" guides="1" tooltips="1" connect="1" arrows="1" fold="1" page="1" pageScale="1" pageWidth="827" pageHeight="1169" math="0" shadow="0">
      <root>
        <mxCell id="0" />
        <mxCell id="1" parent="0" />
        <mxCell id="TgzRCEXpp8UMxFJc2Usx-1" value="" style="rounded=0;whiteSpace=wrap;html=1;" vertex="1" parent="1">
          <mxGeometry x="4" width="820" height="60" as="geometry" />
        </mxCell>
        <mxCell id="TgzRCEXpp8UMxFJc2Usx-2" value="&lt;span style=&quot;font-size: 20px;&quot;&gt;NavBar&lt;br&gt;&lt;/span&gt;" style="text;html=1;strokeColor=none;fillColor=none;align=center;verticalAlign=middle;whiteSpace=wrap;rounded=0;" vertex="1" parent="1">
          <mxGeometry x="370" y="15" width="60" height="30" as="geometry" />
        </mxCell>
      </root>
    </mxGraphModel>
  </diagram>
</mxfile>
